<?xml version="1.0" standalone="no"?>
<!DOCTYPE svg PUBLIC "-//W3C//DTD SVG 20010904//EN"
 "http://www.w3.org/TR/2001/REC-SVG-20010904/DTD/svg10.dtd">
<svg version="1.0" xmlns="http://www.w3.org/2000/svg"
 width="1563.000000pt" height="1563.000000pt" viewBox="0 0 1563.000000 1563.000000"
 preserveAspectRatio="xMidYMid meet">
<metadata>
Created by potrace 1.14, written by Peter Selinger 2001-2017
</metadata>
<g transform="translate(0.000000,1563.000000) scale(0.100000,-0.100000)"
fill="#000000" stroke="none">
<path d="M7410 13972 c-121 -121 -351 -337 -474 -446 l-66 -58 0 -1992 1
-1991 39 -44 c157 -176 151 -461 -12 -631 -52 -55 -111 -100 -132 -100 -8 0
-17 -4 -21 -9 -10 -17 -99 -41 -169 -45 -274 -15 -506 206 -504 480 1 128 50
242 144 336 l54 54 -2 864 -3 863 -582 -582 -583 -583 0 -1161 0 -1162 874
-874 873 -873 -1 -2047 -1 -2046 42 -27 c23 -15 77 -46 120 -69 43 -23 83 -45
88 -49 30 -22 407 -211 412 -207 2 3 5 1328 5 2945 l0 2940 -46 48 c-25 26
-46 51 -46 55 0 4 -6 14 -13 21 -7 7 -23 38 -35 68 -72 179 -37 367 94 506
l45 49 1 1301 0 1302 -47 48 c-53 55 -109 165 -123 240 -26 151 21 306 130
419 22 24 38 50 38 65 1 14 2 577 3 1252 1 814 -1 1228 -8 1227 -5 -1 -48 -40
-95 -87z"/>
<path d="M8112 12807 l0 -1254 31 -29 c95 -90 145 -209 145 -345 0 -122 -43
-228 -129 -324 l-47 -50 0 -1301 0 -1300 36 -35 c46 -45 95 -122 117 -184 22
-63 30 -187 16 -245 -7 -25 -13 -53 -16 -63 -9 -37 -62 -123 -106 -172 l-47
-51 0 -2942 c0 -1618 3 -2942 6 -2942 16 0 614 315 648 341 8 7 11 581 11
2059 l0 2050 874 872 873 873 1 1160 2 1160 -581 583 c-319 320 -583 582 -586
582 -3 0 -5 -388 -5 -862 l1 -863 54 -55 c88 -88 148 -230 145 -340 -6 -184
-110 -348 -269 -425 -274 -131 -582 8 -670 303 -23 78 -16 220 14 292 28 65
52 103 94 148 l31 33 0 1991 0 1992 -39 35 c-21 20 -55 52 -76 71 -21 19 -80
73 -131 120 -51 47 -158 148 -237 225 -79 77 -147 141 -152 143 -4 2 -8 -561
-8 -1251z"/>
<path d="M6130 12844 c-268 -213 -785 -593 -939 -689 -9 -6 -54 -36 -101 -66
-149 -98 -320 -205 -490 -306 -135 -80 -113 -68 -315 -177 -203 -111 -524
-267 -646 -316 -26 -10 -66 -28 -90 -38 -322 -145 -860 -302 -1204 -352 -38
-6 -77 -12 -85 -15 -8 -2 -51 -7 -95 -10 -44 -4 -98 -8 -120 -10 -22 -3 -100
-5 -174 -6 l-133 -2 7 -216 c3 -119 8 -232 10 -251 1 -19 6 -80 10 -135 4 -55
8 -113 10 -130 2 -16 6 -59 10 -95 3 -36 8 -81 10 -100 8 -74 17 -146 20 -170
2 -14 7 -50 10 -80 4 -30 9 -62 10 -70 1 -8 6 -40 10 -70 4 -30 9 -64 11 -75
22 -158 95 -545 149 -790 3 -11 12 -54 21 -95 9 -41 19 -79 22 -84 2 -4 209
196 458 445 l454 454 0 359 0 358 -50 55 c-54 59 -102 152 -118 226 -23 110 8
270 69 360 33 48 116 124 168 152 260 146 603 9 687 -274 50 -167 7 -344 -113
-472 l-43 -46 0 -484 0 -484 -665 -665 -665 -665 56 -170 c151 -462 289 -819
474 -1225 54 -119 266 -547 280 -565 4 -5 30 -53 57 -105 53 -100 227 -401
285 -491 66 -105 311 -473 322 -485 6 -7 34 -45 61 -84 43 -61 100 -138 188
-254 112 -148 342 -424 467 -561 25 -27 70 -76 100 -110 224 -245 671 -666
945 -889 66 -54 131 -108 145 -119 14 -12 108 -83 210 -159 102 -76 190 -142
195 -146 28 -23 222 -152 227 -152 3 0 6 781 6 1734 l0 1735 -235 235 c-129
130 -238 236 -241 236 -4 0 -112 -105 -240 -233 l-232 -232 0 -515 0 -515 31
-29 c107 -101 150 -299 101 -462 -114 -375 -616 -454 -842 -133 -134 191 -113
445 51 609 l59 59 0 617 0 617 320 319 c176 176 320 324 320 328 0 4 -189 197
-420 428 l-420 420 0 322 0 323 -412 -413 -413 -412 -1 -107 0 -106 40 -40
c124 -125 170 -316 115 -484 -112 -339 -550 -437 -799 -179 -183 192 -175 490
20 678 l25 25 0 229 0 229 712 712 713 713 0 664 0 663 885 885 885 885 -2
423 -3 424 -135 -108z"/>
<path d="M9358 12943 c-3 -4 -4 -195 -3 -423 l1 -415 884 -885 884 -885 1
-663 0 -662 713 -713 712 -712 0 -229 0 -228 48 -53 c121 -132 160 -317 102
-483 -68 -194 -258 -325 -461 -317 -87 3 -124 12 -196 47 -157 75 -261 232
-268 404 -6 131 37 251 125 347 l50 55 0 103 0 104 -405 405 c-222 223 -408
406 -412 407 -5 2 -8 -138 -7 -309 l1 -313 -426 -428 -426 -427 326 -328 326
-327 -1 -614 -1 -615 48 -45 c202 -189 200 -511 -4 -695 -94 -85 -198 -126
-321 -127 -221 -1 -422 161 -469 380 -10 49 -8 165 5 218 11 49 70 156 104
191 l36 37 1 513 0 514 -233 234 c-129 129 -237 234 -240 234 -4 0 -112 -105
-241 -234 l-234 -234 -1 -1736 c-1 -955 3 -1736 7 -1736 4 0 42 24 83 53 42
28 85 59 97 67 31 20 436 323 471 352 118 95 240 196 270 223 6 6 45 39 86 75
41 36 84 74 96 85 12 11 73 68 137 127 265 248 557 555 777 817 25 29 50 59
55 65 6 6 57 70 113 141 57 72 108 137 115 145 14 18 226 305 247 336 211 303
437 665 585 939 21 39 51 94 68 124 173 314 411 843 577 1281 67 177 230 659
230 680 0 6 -298 310 -663 675 l-662 662 0 484 1 484 -32 30 c-110 103 -168
284 -139 438 16 86 82 199 152 260 93 82 194 120 323 120 226 0 425 -166 465
-388 26 -144 -23 -307 -124 -414 l-46 -49 0 -360 0 -360 453 -452 c249 -249
454 -451 457 -448 4 4 66 270 78 338 3 14 19 95 36 180 33 168 36 183 51 280
17 106 20 122 30 180 5 30 11 73 14 95 8 65 17 128 21 155 2 14 9 70 15 125 6
55 13 114 15 130 2 17 7 60 10 95 3 36 8 90 10 120 15 168 27 397 29 555 l1
110 -84 1 c-164 3 -359 18 -491 39 -14 2 -45 7 -70 10 -58 8 -201 38 -310 64
-609 147 -1244 422 -1970 852 -346 206 -785 503 -1160 787 -141 107 -366 283
-422 329 -9 8 -18 11 -20 6z"/>
</g>
</svg>
